# xmcd
#
# Track frame offsets: 
#        150
#        13290
#        31407
#        49277
#        64000
#        81347
#        99300
#        116935
#        142552
#        155105
#        169940
#        186027
#        200400
#        213855
#
# Disc length: 3054 seconds
#
# Revision: 0
# Processed by: cddbd v1.4PL0 Copyright (c) Steve Scherf et al.
# Submitted via: ExactAudioCopy v0.90b4
#
DISCID=c30bec0e
DTITLE=Instrumental - Peace, Love and Guitar - Folk Revival Classics
DYEAR=2000
DGENRE=Revival
TTITLE0=Big Yellow Taxi
TTITLE1=Cat's In The Cradle
TTITLE2=Fire and Rain
TTITLE3=Midnight Cowboy
TTITLE4=One Tin Soldier
TTITLE5=If You Could Read My Mind
TTITLE6=The Times They Are A-Changin'
TTITLE7=American Pie
TTITLE8=California Dreamin'
TTITLE9=For What It's Worth
TTITLE10=Wild World
TTITLE11=The Sound Of Silence
TTITLE12=Time In A Bottle
TTITLE13=Leaving On A Jet Plane
EXTD=
EXTT0=
EXTT1=
EXTT2=
EXTT3=
EXTT4=
EXTT5=
EXTT6=
EXTT7=
EXTT8=
EXTT9=
EXTT10=
EXTT11=
EXTT12=
EXTT13=
PLAYORDER=
